<?xml version="1.0" standalone="no"?>
<!DOCTYPE svg PUBLIC "-//W3C//DTD SVG 20010904//EN"
 "http://www.w3.org/TR/2001/REC-SVG-20010904/DTD/svg10.dtd">
<svg version="1.0" xmlns="http://www.w3.org/2000/svg"
 width="900.000000pt" height="900.000000pt" viewBox="0 0 900.000000 900.000000"
 preserveAspectRatio="xMidYMid meet">
<metadata>
Created by potrace 1.14, written by Peter Selinger 2001-2017
</metadata>
<g transform="translate(0.000000,900.000000) scale(0.100000,-0.100000)"
fill="#000000" stroke="none">
<path d="M0 4500 l0 -4500 4500 0 4500 0 0 4500 0 4500 -4500 0 -4500 0 0
-4500z m4206 1734 c1183 -238 2181 -439 3374 -678 399 -81 731 -148 738 -151
9 -3 12 -194 12 -907 l0 -903 -938 -188 c-1052 -212 -1519 -306 -3162 -637
-630 -127 -1156 -229 -1170 -227 -14 3 -290 125 -615 271 -810 366 -1165 526
-1587 716 l-188 85 0 885 0 885 193 87 c228 103 1254 565 1517 683 517 232
608 273 635 288 17 9 39 16 51 17 11 0 524 -101 1140 -226z"/>
<path d="M1983 5737 l-1092 -492 0 -745 -1 -745 1091 -490 c599 -269 1098
-491 1109 -493 10 -2 121 18 247 43 125 25 876 177 1668 336 792 159 1764 355
2160 435 396 80 771 155 833 167 l112 21 0 726 0 725 -938 188 c-515 103
-1301 262 -1747 351 -2012 406 -2312 466 -2330 465 -11 0 -512 -222 -1112
-492z m1179 387 c5 -3 8 -45 8 -95 l0 -89 60 0 60 0 0 79 c0 44 4 82 9 85 5 4
32 1 60 -5 l51 -11 0 -224 0 -224 -60 0 -59 0 -3 83 -3 82 -57 3 -58 3 0 -74
c0 -89 -9 -99 -77 -95 l-48 3 -3 236 -2 236 22 11 c21 10 81 7 100 -4z m-164
-95 l3 -55 -50 -24 -50 -23 -3 -146 -3 -146 -39 -3 c-85 -7 -86 -6 -86 118 0
61 -4 110 -9 110 -5 0 -30 -9 -55 -21 -65 -29 -78 -21 -74 42 l3 52 170 78
c94 43 175 77 180 75 6 -1 11 -27 13 -57z m615 22 c69 -16 130 -32 136 -35 14
-9 14 -83 0 -92 -6 -3 -37 -1 -69 6 -72 15 -89 10 -83 -24 5 -24 9 -25 72 -28
l66 -3 3 -34 c4 -43 -8 -51 -80 -51 -55 0 -58 -1 -58 -25 0 -25 1 -25 88 -25
93 0 112 -8 112 -46 0 -54 0 -54 -171 -54 l-159 0 0 213 c0 185 3 227 16 227
1 0 59 -13 127 -29z m1356 -498 l24 -6 -7 -261 c-4 -144 -11 -630 -16 -1081
-5 -451 -12 -828 -15 -837 -8 -19 -105 -54 -127 -46 -14 6 -91 184 -134 313
-13 39 -83 220 -156 403 -91 230 -134 328 -139 315 -4 -10 -5 -263 -2 -563 3
-324 1 -550 -5 -558 -10 -15 -142 -52 -188 -52 -17 0 -36 6 -42 13 -12 14 -20
1872 -8 1885 4 4 54 7 111 7 88 0 108 -3 132 -20 30 -22 156 -264 239 -460 25
-60 50 -114 55 -120 5 -5 9 208 9 533 l0 542 123 0 c67 0 133 -3 146 -7z
m-501 -25 c17 -17 17 -282 -1 -296 -8 -7 -150 -13 -402 -18 -215 -4 -400 -11
-412 -15 -22 -8 -23 -13 -23 -137 0 -85 4 -132 12 -140 8 -8 56 -10 179 -5
l167 6 15 -24 c20 -33 33 -232 15 -247 -7 -5 -96 -14 -197 -19 l-184 -8 2
-780 c2 -653 0 -783 -12 -799 -9 -12 -43 -25 -98 -37 -94 -21 -135 -23 -144
-9 -11 18 -18 2433 -6 2462 21 54 31 56 371 66 493 14 704 14 718 0z m-1190
-25 c15 -21 17 -285 2 -314 -10 -17 -23 -19 -164 -19 -113 0 -156 -3 -164 -13
-8 -9 -8 -49 -2 -132 5 -66 10 -124 10 -128 0 -4 69 -7 153 -5 l152 3 3 -129
c1 -71 -1 -133 -5 -137 -4 -4 -68 -11 -142 -15 l-133 -7 6 -166 c18 -443 37
-853 52 -1112 18 -315 16 -334 -38 -353 -22 -8 -40 -3 -102 28 -81 39 -108 68
-124 131 -21 78 -33 305 -42 770 -10 502 -13 572 -35 820 -35 386 -45 682 -24
729 7 14 27 32 45 41 75 36 526 42 552 8z m-900 -32 c151 -77 239 -451 272
-1155 11 -236 -1 -557 -25 -670 -32 -149 -105 -254 -213 -303 -42 -20 -77 -27
-147 -31 -84 -4 -98 -2 -146 21 -30 14 -68 39 -86 56 -62 60 -119 183 -148
322 -49 232 -56 1198 -10 1423 43 208 143 328 296 355 73 13 161 5 207 -18z
m3886 -37 c13 -12 16 -40 16 -134 0 -147 -5 -155 -92 -145 -32 4 -124 4 -204
0 l-145 -7 3 -107 3 -106 205 0 205 0 7 -45 c10 -66 9 -153 -2 -170 -7 -11
-47 -15 -199 -20 -131 -3 -194 -9 -202 -17 -10 -10 -12 -129 -10 -524 1 -281
5 -517 8 -525 3 -8 2 -39 -2 -69 -7 -62 -2 -59 -131 -80 -131 -22 -153 -20
-164 11 -6 14 -10 116 -10 227 0 111 -5 373 -10 582 -23 875 -28 1099 -23
1112 3 8 15 19 27 23 12 5 175 9 363 9 298 1 344 -1 357 -15z m292 -45 c66
-11 184 -34 264 -50 80 -17 195 -39 255 -50 61 -11 125 -26 144 -35 l34 -15
-7 -96 c-11 -164 -22 -171 -200 -128 -59 14 -117 25 -128 25 -19 0 -19 -8 -17
-647 l2 -646 -21 -18 c-19 -15 -126 -48 -207 -65 l-31 -6 4 710 c4 686 4 710
-14 720 -11 5 -55 15 -99 21 -125 19 -152 28 -159 54 -8 29 -8 195 0 225 8 28
26 28 180 1z m-4831 -56 l60 -19 3 -69 c3 -63 -11 -202 -24 -247 -7 -22 -35
-23 -94 -2 -91 32 -200 -3 -245 -80 -57 -97 -114 -415 -100 -556 15 -155 53
-255 110 -290 46 -28 93 -32 180 -15 104 20 122 19 135 -5 6 -11 20 -95 31
-187 l21 -167 -22 -18 c-29 -24 -78 -35 -180 -43 -154 -11 -265 28 -365 129
-93 95 -146 218 -187 432 -30 157 -32 460 -5 599 22 109 60 239 92 312 45 101
185 213 303 243 56 14 218 5 287 -17z m6031 -169 c81 -16 183 -57 196 -77 4
-7 8 -60 8 -119 0 -167 -22 -199 -93 -131 -64 61 -87 73 -138 73 -32 0 -55 -7
-74 -22 -25 -19 -27 -26 -23 -74 3 -34 17 -78 39 -121 19 -38 56 -109 81 -159
77 -149 111 -262 112 -374 1 -113 -12 -161 -61 -227 -64 -87 -149 -126 -316
-145 -195 -23 -416 38 -470 129 -16 28 -17 38 -6 99 14 80 34 133 53 140 8 3
63 -16 123 -41 140 -61 199 -67 276 -32 43 20 60 34 76 65 47 93 34 205 -41
342 -152 279 -169 320 -171 425 -1 95 22 160 76 212 23 22 56 46 72 52 38 14
179 7 281 -15z m-1376 -591 c0 -10 5 -49 10 -88 5 -38 10 -245 11 -459 3 -376
2 -390 -17 -402 -24 -16 -156 -44 -210 -44 l-41 0 -6 487 c-3 306 -2 494 4
505 9 16 24 18 129 18 108 0 120 -2 120 -17z m-2372 -737 c1 -495 -1 -682 -9
-692 -16 -20 -171 -66 -205 -62 -25 3 -30 8 -36 43 -11 69 -2 1337 11 1368
l11 28 112 -3 113 -3 3 -679z"/>
<path d="M2170 5169 c-40 -16 -80 -60 -89 -99 -18 -69 -22 -301 -12 -660 11
-368 19 -473 47 -609 32 -155 83 -241 143 -241 37 0 77 32 90 73 16 53 24 560
12 826 -22 485 -57 678 -128 710 -28 13 -30 13 -63 0z"/>
</g>
</svg>
